<?xml version="1.0" encoding="UTF-8"?>
<svg preserveAspectRatio="xMidYMid" viewBox="122.75 105.53 32.458 30.147" xmlns="http://www.w3.org/2000/svg" xmlns:cc="http://creativecommons.org/ns#" xmlns:dc="http://purl.org/dc/elements/1.1/" xmlns:rdf="http://www.w3.org/1999/02/22-rdf-syntax-ns#">
  <clipPath id="a">
    <rect x=".3" y=".3" width="539.4" height="719.15"/>
  </clipPath>
  <g clip-path="url(#a)" transform="translate(.292 -.093)">
    <path d="M123.46 134.77v-6.442h2.856q.861 0 1.31.175.448.172.716.611.268.44.268.971 0 .686-.444 1.156t-1.371.598q.338.162.514.321.374.342.708.857l1.12 1.753h-1.072l-.853-1.34q-.373-.58-.615-.888-.241-.308-.435-.431-.189-.123-.387-.171-.145-.031-.474-.031h-.989v2.861zm.852-3.599h1.833q.584 0 .914-.119.329-.123.501-.386.171-.269.171-.581 0-.457-.334-.751-.33-.294-1.046-.294h-2.039zM140.51 125.31l.853.216q-.269 1.05-.967 1.604-.695.549-1.701.549-1.041 0-1.696-.422-.651-.426-.993-1.23-.339-.805-.339-1.728 0-1.006.383-1.753.386-.751 1.094-1.138.712-.391 1.564-.391.967 0 1.626.492t.919 1.384l-.84.198q-.224-.703-.65-1.024t-1.072-.321q-.743 0-1.244.356-.497.356-.699.958-.202.598-.202 1.235 0 .822.237 1.437.242.611.748.914.505.303 1.094.303.716 0 1.213-.413.496-.413.672-1.226z"/>
    <path d="m130.24 129.15-0.3-0.52 4.32-2.5 0.3 0.52z" fill-rule="evenodd" shape-rendering="geometricPrecision" stroke-width="0"/>
    <path d="m135.4 110.04q0-1.604 0.861-2.509 0.862-0.91 2.224-0.91 0.892 0 1.608 0.427 0.717 0.426 1.09 1.191 0.378 0.76 0.378 1.727 0 0.98-0.395 1.753-0.396 0.773-1.121 1.173-0.725 0.396-1.564 0.396-0.91 0-1.626-0.44-0.717-0.439-1.086-1.199-0.369-0.761-0.369-1.609zm0.879 0.013q0 1.165 0.624 1.837 0.628 0.668 1.573 0.668 0.963 0 1.582-0.676 0.624-0.677 0.624-1.921 0-0.786-0.268-1.371-0.263-0.589-0.778-0.91-0.509-0.325-1.147-0.325-0.905 0-1.56 0.624-0.65 0.62-0.65 2.074z"/>
    <path d="M139.37 119.5h.6v-4.6h-.6zM136.97 119.5h.6v-4.6h-.6z" fill-rule="evenodd" shape-rendering="geometricPrecision" stroke-width="0"/>
    <path d="m148.01 134.77 2.491-3.357-2.197-3.085h1.015l1.169 1.652q0.365 0.514 0.519 0.791 0.215-0.352 0.509-0.734l1.297-1.709h0.927l-2.263 3.036 2.439 3.406h-1.055l-1.621-2.298q-0.137-0.198-0.282-0.431-0.215 0.352-0.307 0.483l-1.618 2.246z"/>
    <path d="m142.64 126.8 0.3-0.52 3.92 2.27-0.3 0.52z" fill-rule="evenodd" shape-rendering="geometricPrecision" stroke-width="0"/>
  </g>
</svg>