<?xml version="1.0" encoding="UTF-8"?>
<svg preserveAspectRatio="xMidYMid" viewBox="177.5 68.78 48.225 44.547" xmlns="http://www.w3.org/2000/svg" xmlns:cc="http://creativecommons.org/ns#" xmlns:dc="http://purl.org/dc/elements/1.1/" xmlns:rdf="http://www.w3.org/1999/02/22-rdf-syntax-ns#">
  <clipPath id="a">
    <rect x=".3" y=".3" width="539.4" height="719.15"/>
  </clipPath>
  <g clip-path="url(#a)" transform="translate(.292 -.0934)">
    <path d="M178.21 98.02v-6.442h2.856q.86 0 1.31.175.448.172.716.61.268.44.268.972 0 .686-.444 1.156t-1.37.6q.337.16.513.32.37.35.7.86l1.12 1.76h-1.07l-.858-1.34q-.373-.58-.615-.886-.24-.31-.435-.43-.19-.124-.385-.172-.143-.03-.472-.03h-.988v2.86zm.852-3.6h1.833q.584 0 .914-.118.32-.123.5-.387.17-.268.17-.58 0-.457-.34-.75-.33-.296-1.05-.296h-2.04zm16.198-5.86l.853.216q-.27 1.05-.967 1.604-.695.55-1.7.55-1.042 0-1.697-.422-.66-.426-1-1.23-.34-.805-.34-1.728 0-1.006.38-1.753.384-.752 1.092-1.138.712-.4 1.564-.4.967 0 1.626.49.66.49.92 1.382l-.84.2q-.223-.704-.65-1.025t-1.07-.32q-.743 0-1.244.355-.498.358-.7.96-.2.6-.2 1.236 0 .822.235 1.437.24.61.75.913.504.304 1.093.304.716 0 1.213-.414.495-.413.67-1.226z"/>
    <path d="M184.93 92.43l-.15-.26-.15-.25 4.44-2.57.3.52z" fill-rule="evenodd" shape-rendering="geometricPrecision" stroke-width="0"/>
    <path d="M203.13 98.02v-6.442h.874l3.384 5.058v-5.058h.817v6.442h-.874l-3.38-5.063v5.063z"/>
    <path d="M197.43 90.08l.3-.52 4.24 2.45-.3.52z" fill-rule="evenodd" shape-rendering="geometricPrecision" stroke-width="0"/>
    <path d="M190.16 73.292q0-1.604.86-2.51.863-.91 2.225-.91.892 0 1.608.427.717.42 1.09 1.19.378.76.378 1.72 0 .98-.39 1.75-.39.773-1.12 1.173-.72.396-1.56.396-.91 0-1.623-.44-.717-.44-1.086-1.2t-.37-1.61zm.88.013q0 1.165.623 1.837.628.668 1.573.668.963 0 1.582-.677.624-.676.624-1.92 0-.787-.268-1.37-.263-.59-.778-.91-.51-.326-1.147-.326-.91 0-1.56.624-.65.62-.65 2.08z"/>
    <path d="M194 82.71h.6v-4.52h-.6zm-2.16 0h.6v-4.52h-.6z" fill-rule="evenodd" shape-rendering="geometricPrecision" stroke-width="0"/>
    <path d="M203.15 112.42v-6.442h2.856q.86 0 1.31.175.448.172.716.61.268.44.268.972 0 .686-.444 1.156t-1.37.6q.337.16.513.32.37.35.7.86l1.12 1.76h-1.07l-.858-1.34q-.373-.58-.615-.886-.24-.31-.435-.43-.19-.124-.385-.172-.143-.03-.472-.03H204v2.86zm.852-3.6h1.833q.584 0 .914-.118.32-.123.5-.386.17-.27.17-.58 0-.458-.34-.752-.33-.294-1.05-.294H204zm5.538-.56l-.203-1.204v-1.076h.9v1.076l-.21 1.204z"/>
    <path d="M205.39 99.99v-1h.6v5.72h-.6z" fill-rule="evenodd" shape-rendering="geometricPrecision" stroke-width="0"/>
    <path d="M215.62 90.82v-6.442h2.856q.86 0 1.31.175.448.172.716.61.268.44.268.972 0 .686-.444 1.156t-1.37.6q.337.16.513.32.37.35.7.86l1.12 1.76h-1.07l-.858-1.34q-.373-.58-.615-.886-.24-.31-.435-.43-.19-.124-.385-.172-.143-.03-.472-.03h-.988v2.86zm.852-3.6h1.833q.584 0 .914-.118.32-.123.5-.387.17-.268.17-.58 0-.457-.34-.75-.33-.296-1.05-.296h-2.04zm5.538-.562l-.203-1.204v-1.077h.9v1.077l-.21 1.204zm1.72 0l-.202-1.204v-1.077h.9v1.077l-.21 1.204z"/>
    <path d="M209.73 92.52l-.3-.52 4.74-2.74.3.52z" fill-rule="evenodd" shape-rendering="geometricPrecision" stroke-width="0"/>
  </g>
</svg>