<?xml version="1.0" encoding="UTF-8"?>
<svg width="109pt" version="1.1" xmlns="http://www.w3.org/2000/svg" height="80pt" viewBox="0 0 109 80" xmlns:xlink="http://www.w3.org/1999/xlink">
 <defs>
  <clipPath id="Clip0">
   <path d="M0 0 L109 0 L109 80 L0 80 L0 0 Z" transform="translate(0, 0)"/>
  </clipPath>
 </defs>
 <g id="Hintergrund">
  <g id="Gruppe1" clip-path="url(#Clip0)">
   <path style="fill:#0000ff; fill-rule:evenodd;stroke:none;" d="M13.1514 5.4238 C13.128 1.9922 10.7754 0 6.7442 0 C2.9034 0 0.5274 1.9678 0.5274 5.1358 C0.5274 7.2725 1.6553 8.6162 3.96 9.2158 L8.3038 10.3682 C10.5118 10.9444 11.5196 11.8321 11.5196 13.2002 C11.5196 14.1358 11.0157 15.0957 10.2715 15.624 C9.5752 16.1045 8.4717 16.3682 7.0557 16.3682 C5.1592 16.3682 3.8633 15.9121 3.0235 14.9043 C2.376 14.1358 2.0879 13.2959 2.1114 12.2158 L0 12.2158 C0.0235 13.8242 0.336 14.8799 1.0313 15.8399 C2.2315 17.4727 4.2481 18.336 6.9122 18.336 C9 18.336 10.7041 17.8565 11.8321 16.9922 C13.0079 16.0567 13.752 14.4961 13.752 12.9844 C13.752 10.8242 12.4073 9.2403 10.0313 8.5918 L5.6397 7.416 C3.5274 6.8399 2.7598 6.168 2.7598 4.8242 C2.7598 3.0479 4.3194 1.8721 6.6719 1.8721 C9.4561 1.8721 11.0157 3.1446 11.0401 5.4238 L13.1514 5.4238 Z" transform="translate(38.6523, 39.2158)"/>
   <path style="fill:#000000; fill-rule:evenodd;stroke:none;" d="M2.23145 9.96 L7.99118 9.96 C9.98338 9.96 10.8711 10.9199 10.8711 13.0801 L10.8477 14.6397 C10.8477 15.7197 11.0401 16.7764 11.3516 17.4961 L14.0635 17.4961 L14.0635 16.9443 C13.2237 16.3682 13.0557 15.7441 13.0078 13.416 C12.9834 10.5361 12.5274 9.6719 10.6319 8.8565 C12.5996 7.8965 13.3916 6.6719 13.3916 4.6797 C13.3916 1.6563 11.4951 0 8.06348 0 L0 0 L0 17.4961 L2.23145 17.4961 L2.23145 9.96 Z M2.23145 7.9922 L2.23145 1.9678 L7.63188 1.9678 C8.87988 1.9678 9.59958 2.1602 10.1514 2.6406 C10.752 3.1445 11.0635 3.9365 11.0635 4.9922 C11.0635 7.0557 10.0078 7.9922 7.63188 7.9922 L2.23145 7.9922 Z" transform="translate(4.60742, 59.3789)"/>
   <path style="fill:#000000; fill-rule:nonzero;stroke:none;" d="M0.8496 10.6006 L0 9.1006 L15.7998 0 L16.6494 1.4502 L0.8496 10.6006 Z" transform="translate(19.7002, 52.3496)"/>
   <path style="fill:#0000ff; fill-rule:evenodd;stroke:none;" d="M8.4238 0 C3.4082 0 0 3.6963 0 9.168 C0 14.6406 3.4082 18.336 8.4483 18.336 C10.5596 18.336 12.4561 17.6885 13.8721 16.4883 C15.7676 14.8799 16.8955 12.168 16.8955 9.3125 C16.8955 3.6719 13.5596 0 8.4238 0 Z M8.4238 1.9678 C12.2158 1.9678 14.6641 4.8487 14.6641 9.2647 C14.6641 13.4883 12.1436 16.3682 8.4483 16.3682 C4.7275 16.3682 2.2315 13.4883 2.2315 9.168 C2.2315 4.8487 4.7275 1.9678 8.4238 1.9678 Z" transform="translate(71.4121, 59.2158)"/>
   <path style="fill:#0000ff; fill-rule:evenodd;stroke:none;" d="M11.2318 9.5283 L11.2318 17.4961 L13.4638 17.4961 L13.4638 0 L11.2318 0 L11.2318 7.5606 L2.2314 7.5606 L2.2314 0 L0 0 L0 17.4961 L2.2558 17.4961 L2.2558 9.5283 L11.2318 9.5283 Z" transform="translate(90.9922, 59.5039)"/>
   <path style="fill:#0000ff; fill-rule:nonzero;stroke:none;" d="M16.7002 9.1504 L15.8506 10.6504 L0 1.5 L0.8506 0 L16.7002 9.1504 Z" transform="translate(54.5498, 52.3496)"/>
   <path style="fill:#0000ff; fill-rule:evenodd;stroke:none;" d="M8.4238 0 C3.4082 0 0 3.69629 0 9.16798 C0 14.6406 3.4082 18.336 8.4483 18.336 C10.5596 18.336 12.4561 17.6885 13.8721 16.4883 C15.7676 14.8799 16.8955 12.168 16.8955 9.31248 C16.8955 3.67188 13.5596 0 8.4238 0 Z M8.4238 1.96777 C12.2158 1.96777 14.6641 4.84863 14.6641 9.26468 C14.6641 13.4883 12.1436 16.3682 8.4483 16.3682 C4.7275 16.3682 2.2315 13.4883 2.2315 9.16798 C2.2315 4.84863 4.7275 1.96777 8.4238 1.96777 Z" transform="translate(56.9121, 4.96582)"/>
   <path style="fill:#0000ff; fill-rule:nonzero;stroke:none;" d="M8.7998 0 L10.25 0.8506 L1.5 16.0498 L0 15.2002 L8.7998 0 Z" transform="translate(47.25, 21.5498)"/>
   <path style="fill:#0000ff; fill-rule:nonzero;stroke:none;" d="M8.7998 0 L10.25 0.8496 L1.5 16.0996 L0 15.25 L8.7998 0 Z" transform="translate(52.4004, 24.5)"/>
   <path style="fill:#0000ff; fill-rule:evenodd;stroke:none;" d="M8.4238 0 C3.4082 0 0 3.69629 0 9.16798 C0 14.6406 3.4082 18.336 8.4483 18.336 C10.5596 18.336 12.4561 17.6885 13.8721 16.4883 C15.7676 14.8799 16.8955 12.168 16.8955 9.31248 C16.8955 3.67188 13.5596 0 8.4238 0 Z M8.4238 1.96777 C12.2158 1.96777 14.6641 4.84863 14.6641 9.26468 C14.6641 13.4883 12.1436 16.3682 8.4483 16.3682 C4.7275 16.3682 2.2315 13.4883 2.2315 9.16798 C2.2315 4.84863 4.7275 1.96777 8.4238 1.96777 Z" transform="translate(17.1621, 4.96582)"/>
   <path style="fill:#0000ff; fill-rule:nonzero;stroke:none;" d="M0 0.8506 L1.5 0 L10.1494 15 L8.7002 15.8506 L0 0.8506 Z" transform="translate(28.2002, 24.5996)"/>
   <path style="fill:#0000ff; fill-rule:nonzero;stroke:none;" d="M0 0.8506 L1.5 0 L10.1504 15.0508 L8.7002 15.9004 L0 0.8506 Z" transform="translate(33.3496, 21.5996)"/>
  </g>
 </g>
</svg>
