<?xml version="1.0" encoding="UTF-8"?>
<svg width="170pt" version="1.1" xmlns="http://www.w3.org/2000/svg" height="93pt" viewBox="0 0 170 93" xmlns:xlink="http://www.w3.org/1999/xlink">
 <defs>
  <clipPath id="Clip0">
   <path d="M0 0 L170 0 L170 93 L0 93 L0 0 Z" transform="translate(0, 0)"/>
  </clipPath>
 </defs>
 <g id="Hintergrund">
  <g id="Gruppe1" clip-path="url(#Clip0)">
   <path style="fill:#000000; fill-rule:evenodd;stroke:none;" d="M2.23145 9.96 L7.99118 9.96 C9.98338 9.96 10.8711 10.9199 10.8711 13.0801 L10.8477 14.6397 C10.8477 15.7197 11.0401 16.7764 11.3516 17.4961 L14.0635 17.4961 L14.0635 16.9443 C13.2237 16.3682 13.0557 15.7441 13.0078 13.416 C12.9834 10.5361 12.5274 9.6719 10.6319 8.8565 C12.5996 7.8965 13.3916 6.6719 13.3916 4.6797 C13.3916 1.6563 11.4951 0 8.06348 0 L0 0 L0 17.4961 L2.23145 17.4961 L2.23145 9.96 Z M2.23145 7.9922 L2.23145 1.9678 L7.63188 1.9678 C8.87988 1.9678 9.59958 2.1602 10.1514 2.6406 C10.752 3.1445 11.0635 3.9365 11.0635 4.9922 C11.0635 7.0557 10.0078 7.9922 7.63188 7.9922 L2.23145 7.9922 Z" transform="translate(5.23242, 13.5039)"/>
   <path style="fill:#000000; fill-rule:evenodd;stroke:none;" d="M2.8262 3.67192 L2.8262 12.7617 L4.4102 12.7617 L4.4102 0 L3.3662 0 C2.8077 1.96192 2.4483 2.23142 0 2.53812 L0 3.67192 L2.8262 3.67192 Z" transform="translate(22.1484, 9.23828)"/>
   <path style="fill:#0000ff; fill-rule:evenodd;stroke:none;" d="M14.7354 5.7119 C14.0401 1.8721 11.8321 0 7.9913 0 C5.6397 0 3.7442 0.7442 2.4473 2.1846 C0.8633 3.9121 0 6.4082 0 9.2403 C0 12.1201 0.8877 14.5918 2.544 16.2959 C3.8877 17.6885 5.6153 18.336 7.8956 18.336 C12.168 18.336 14.5674 16.0322 15.0957 11.4004 L12.792 11.4004 C12.5997 12.6006 12.3594 13.416 12 14.1123 C11.2793 15.5518 9.792 16.3682 7.92 16.3682 C4.4395 16.3682 2.2315 13.584 2.2315 9.2158 C2.2315 4.7285 4.3438 1.9678 7.7276 1.9678 C9.1436 1.9678 10.4639 2.4004 11.1836 3.0723 C11.8321 3.6719 12.1915 4.416 12.4561 5.7119 L14.7354 5.7119 Z" transform="translate(38.4023, 32.9658)"/>
   <path style="fill:#000000; fill-rule:nonzero;stroke:none;" d="M15.9004 8.7002 L15.0498 10.1504 L0 1.4502 L0.8506 0 L15.9004 8.7002 Z" transform="translate(22.0498, 27.0498)"/>
   <path style="fill:#0000ff; fill-rule:evenodd;stroke:none;" d="M8.4238 0 C3.4082 0 0 3.6963 0 9.168 C0 14.6406 3.4082 18.336 8.4483 18.336 C10.5596 18.336 12.4561 17.6885 13.8721 16.4883 C15.7676 14.8799 16.8955 12.168 16.8955 9.3125 C16.8955 3.6719 13.5596 0 8.4238 0 Z M8.4238 1.9678 C12.2158 1.9678 14.6641 4.8487 14.6641 9.2647 C14.6641 13.4883 12.1436 16.3682 8.4483 16.3682 C4.7275 16.3682 2.2315 13.4883 2.2315 9.168 C2.2315 4.8487 4.7275 1.9678 8.4238 1.9678 Z" transform="translate(37.6621, 72.7158)"/>
   <path style="fill:#0000ff; fill-rule:nonzero;stroke:none;" d="M1.6992 17.4004 L0 17.4004 L0 0 L1.6992 0 L1.6992 17.4004 Z" transform="translate(48.1504, 53.3496)"/>
   <path style="fill:#0000ff; fill-rule:nonzero;stroke:none;" d="M1.7002 17.4004 L0 17.4004 L0 0 L1.7002 0 L1.7002 17.4004 Z" transform="translate(42.2002, 53.3496)"/>
   <path style="fill:#0000ff; fill-rule:evenodd;stroke:none;" d="M8.4238 0 C3.4082 0 0 3.6963 0 9.168 C0 14.6406 3.4082 18.336 8.4483 18.336 C10.5596 18.336 12.4561 17.6885 13.8721 16.4883 C15.7676 14.8799 16.8955 12.168 16.8955 9.3125 C16.8955 3.6719 13.5596 0 8.4238 0 Z M8.4238 1.9678 C12.2158 1.9678 14.6641 4.8487 14.6641 9.2647 C14.6641 13.4883 12.1436 16.3682 8.4483 16.3682 C4.7275 16.3682 2.2315 13.4883 2.2315 9.168 C2.2315 4.8487 4.7275 1.9678 8.4238 1.9678 Z" transform="translate(71.9121, 13.2158)"/>
   <path style="fill:#0000ff; fill-rule:nonzero;stroke:none;" d="M15.6494 0 L16.5 1.4492 L0.8496 10.5 L0 9.0498 L15.6494 0 Z" transform="translate(54.6504, 26.4004)"/>
   <path style="fill:#0000ff; fill-rule:evenodd;stroke:none;" d="M14.736 5.7119 C14.04 1.8721 11.832 0 7.992 0 C5.64 0 3.744 0.7442 2.448 2.1846 C0.864 3.9121 0 6.4082 0 9.2403 C0 12.1201 0.888 14.5918 2.544 16.2959 C3.888 17.6885 5.616 18.336 7.896 18.336 C12.168 18.336 14.568 16.0322 15.096 11.4004 L12.792 11.4004 C12.6 12.6006 12.36 13.416 12 14.1123 C11.28 15.5518 9.792 16.3682 7.92 16.3682 C4.44 16.3682 2.232 13.584 2.232 9.2158 C2.232 4.7285 4.344 1.9678 7.728 1.9678 C9.144 1.9678 10.464 2.4004 11.184 3.0723 C11.832 3.6719 12.192 4.416 12.456 5.7119 L14.736 5.7119 Z" transform="translate(107.152, 32.9658)"/>
   <path style="fill:#0000ff; fill-rule:nonzero;stroke:none;" d="M16.95 9.2998 L16.1 10.75 L0 1.4502 L0.8496 0 L16.95 9.2998 Z" transform="translate(89.75, 26.4502)"/>
   <path style="fill:#0000ff; fill-rule:evenodd;stroke:none;" d="M8.424 0 C3.408 0 0 3.6963 0 9.168 C0 14.6406 3.408 18.336 8.448 18.336 C10.56 18.336 12.456 17.6885 13.872 16.4883 C15.768 14.8799 16.896 12.168 16.896 9.3125 C16.896 3.6719 13.56 0 8.424 0 Z M8.424 1.9678 C12.216 1.9678 14.664 4.8487 14.664 9.2647 C14.664 13.4883 12.144 16.3682 8.448 16.3682 C4.728 16.3682 2.232 13.4883 2.232 9.168 C2.232 4.8487 4.728 1.9678 8.424 1.9678 Z" transform="translate(106.412, 72.7158)"/>
   <path style="fill:#0000ff; fill-rule:nonzero;stroke:none;" d="M1.7 17.4004 L0 17.4004 L0 0 L1.7 0 L1.7 17.4004 Z" transform="translate(116.9, 53.3496)"/>
   <path style="fill:#0000ff; fill-rule:nonzero;stroke:none;" d="M1.7 17.4004 L0 17.4004 L0 0 L1.7 0 L1.7 17.4004 Z" transform="translate(110.95, 53.3496)"/>
   <path style="fill:#000000; fill-rule:evenodd;stroke:none;" d="M2.231 9.96 L7.991 9.96 C9.983 9.96 10.871 10.9199 10.871 13.0801 L10.848 14.6397 C10.848 15.7197 11.04 16.7764 11.351 17.4961 L14.063 17.4961 L14.063 16.9443 C13.224 16.3682 13.056 15.7441 13.008 13.416 C12.983 10.5361 12.527 9.6719 10.632 8.8565 C12.6 7.8965 13.392 6.6719 13.392 4.6797 C13.392 1.6563 11.495 0 8.063 0 L0 0 L0 17.4961 L2.231 17.4961 L2.231 9.96 Z M2.231 7.9922 L2.231 1.9678 L7.632 1.9678 C8.88 1.9678 9.6 2.1602 10.151 2.6406 C10.752 3.1445 11.063 3.9365 11.063 4.9922 C11.063 7.0557 10.008 7.9922 7.632 7.9922 L2.231 7.9922 Z" transform="translate(142.67, 13.5039)"/>
   <path style="fill:#000000; fill-rule:evenodd;stroke:none;" d="M8.496 11.1953 L1.782 11.1953 C1.944 10.1513 2.52 9.48532 4.086 8.56742 L5.886 7.59572 C7.668 6.62402 8.586 5.30962 8.586 3.74412 C8.586 2.68162 8.154 1.69142 7.398 1.00782 C6.642 0.32422 5.706 0 4.5 0 C2.88 0 1.674 0.57617 0.972 1.65532 C0.522 2.33982 0.324 3.13182 0.288 4.42772 L1.872 4.42772 C1.926 3.56352 2.034 3.04202 2.25 2.62792 C2.664 1.85352 3.492 1.38572 4.446 1.38572 C5.886 1.38572 6.966 2.41212 6.966 3.77932 C6.966 4.78812 6.372 5.65132 5.238 6.29982 L3.582 7.23532 C0.918 8.74802 0.144 9.95412 0 12.7617 L8.496 12.7617 L8.496 11.1953 Z" transform="translate(158.362, 9.23828)"/>
   <path style="fill:#000000; fill-rule:nonzero;stroke:none;" d="M15 0 L15.85 1.4502 L0.85 10.1504 L0 8.7002 L15 0 Z" transform="translate(123.4, 26.75)"/>
  </g>
 </g>
</svg>
