<?xml version="1.0" encoding="UTF-8" standalone="no"?>
<!-- Created with Inkscape (http://www.inkscape.org/) -->

<svg
   xmlns:dc="http://purl.org/dc/elements/1.1/"
   xmlns:cc="http://creativecommons.org/ns#"
   xmlns:rdf="http://www.w3.org/1999/02/22-rdf-syntax-ns#"
   xmlns:svg="http://www.w3.org/2000/svg"
   xmlns="http://www.w3.org/2000/svg"
   xmlns:sodipodi="http://sodipodi.sourceforge.net/DTD/sodipodi-0.dtd"
   xmlns:inkscape="http://www.inkscape.org/namespaces/inkscape"
   width="800"
   height="509"
   id="svg2"
   version="1.1"
   inkscape:version="0.48.0 r9654"
   sodipodi:docname="800px-Primary-amine-2D-general.svg">
  <defs
     id="defs4" />
  <sodipodi:namedview
     id="base"
     pagecolor="#ffffff"
     bordercolor="#666666"
     borderopacity="1.0"
     inkscape:pageopacity="0.0"
     inkscape:pageshadow="2"
     inkscape:zoom="0.97249506"
     inkscape:cx="399.99999"
     inkscape:cy="254.51283"
     inkscape:document-units="px"
     inkscape:current-layer="layer1"
     showgrid="false"
     inkscape:window-width="1024"
     inkscape:window-height="712"
     inkscape:window-x="-4"
     inkscape:window-y="-4"
     inkscape:window-maximized="1"
     showguides="true"
     inkscape:guide-bbox="true"
     inkscape:snap-bbox="true"
     inkscape:bbox-nodes="true"
     inkscape:snap-bbox-edge-midpoints="true"
     inkscape:bbox-paths="true"
     inkscape:snap-bbox-midpoints="true"
     inkscape:object-nodes="true"
     inkscape:object-paths="true"
     inkscape:snap-intersection-paths="true"
     inkscape:snap-smooth-nodes="true"
     inkscape:snap-midpoints="true"
     inkscape:snap-object-midpoints="true"
     inkscape:snap-center="true"
     inkscape:snap-global="true"
     borderlayer="true"
     fit-margin-top="0"
     fit-margin-left="0"
     fit-margin-right="0"
     fit-margin-bottom="0" />
  <metadata
     id="metadata7">
    <rdf:RDF>
      <cc:Work
         rdf:about="">
        <dc:format>image/svg+xml</dc:format>
        <dc:type
           rdf:resource="http://purl.org/dc/dcmitype/StillImage" />
        <dc:title></dc:title>
      </cc:Work>
    </rdf:RDF>
  </metadata>
  <g
     inkscape:label="Capa 1"
     inkscape:groupmode="layer"
     id="layer1"
     transform="translate(0,-543.375)">
    <g
       id="g4174">
      <g
         id="g4138">
        <path
           style="fill:#000000;fill-opacity:1;fill-rule:nonzero;stroke:none"
           d="m 513.90854,916.39514 31.82157,-19.41262 -113.82237,-168.72492 -7.79866,4.95063 z"
           id="path3070"
           inkscape:connector-curvature="0"
           sodipodi:nodetypes="ccccc" />
        <g
           style="font-size:131.45198059px;font-style:normal;font-weight:normal;line-height:125%;letter-spacing:0px;word-spacing:0px;fill:#000000;fill-opacity:1;stroke:none;font-family:Times New Roman;-inkscape-font-specification:Times New Roman"
           id="text3949-7-1">
          <path
             d="m 528.62585,1015.9402 0,-94.09601 12.452,0 0,38.63969 48.90938,0 0,-38.63969 12.45199,0 0,94.09601 -12.45199,0 0,-44.35222 -48.90938,0 0,44.35222 z"
             style="fill:#000000;font-family:arial;-inkscape-font-specification:arial"
             id="path4074"
             inkscape:connector-curvature="0" />
        </g>
      </g>
      <g
         id="g4123">
        <g
           id="g4111">
          <path
             sodipodi:nodetypes="cc"
             inkscape:connector-curvature="0"
             id="path3842"
             d="m 448.76512,696.25266 6.498,-23.84575"
             style="fill:none;stroke:#000000;stroke-width:8.19999981;stroke-linecap:butt;stroke-linejoin:miter;stroke-miterlimit:4;stroke-opacity:1;stroke-dasharray:none" />
          <path
             sodipodi:nodetypes="cc"
             inkscape:connector-curvature="0"
             id="path3842-7"
             d="m 472.48435,702.63739 6.498,-23.84575"
             style="fill:none;stroke:#000000;stroke-width:8.19999981;stroke-linecap:butt;stroke-linejoin:miter;stroke-miterlimit:4;stroke-opacity:1;stroke-dasharray:none" />
          <path
             sodipodi:nodetypes="cc"
             inkscape:connector-curvature="0"
             id="path3842-4"
             d="m 496.21816,709.02605 6.498,-23.84575"
             style="fill:none;stroke:#000000;stroke-width:8.19999981;stroke-linecap:butt;stroke-linejoin:miter;stroke-miterlimit:4;stroke-opacity:1;stroke-dasharray:none" />
          <path
             sodipodi:nodetypes="cc"
             inkscape:connector-curvature="0"
             id="path3842-0"
             d="m 520.16415,715.47182 6.498,-23.84575"
             style="fill:none;stroke:#000000;stroke-width:8.19999981;stroke-linecap:butt;stroke-linejoin:miter;stroke-miterlimit:4;stroke-opacity:1;stroke-dasharray:none" />
          <path
             sodipodi:nodetypes="cc"
             inkscape:connector-curvature="0"
             id="path3842-9"
             d="m 544.13922,721.92542 6.498,-23.84575"
             style="fill:none;stroke:#000000;stroke-width:8.19999981;stroke-linecap:butt;stroke-linejoin:miter;stroke-miterlimit:4;stroke-opacity:1;stroke-dasharray:none" />
          <path
             sodipodi:nodetypes="cc"
             inkscape:connector-curvature="0"
             id="path3842-9-4"
             d="m 567.90213,728.32191 6.498,-23.84575"
             style="fill:none;stroke:#000000;stroke-width:8.19999981;stroke-linecap:butt;stroke-linejoin:miter;stroke-miterlimit:4;stroke-opacity:1;stroke-dasharray:none" />
          <path
             sodipodi:nodetypes="cc"
             inkscape:connector-curvature="0"
             id="path3842-9-8"
             d="m 591.72902,734.73562 6.498,-23.84575"
             style="fill:none;stroke:#000000;stroke-width:8.19999981;stroke-linecap:butt;stroke-linejoin:miter;stroke-miterlimit:4;stroke-opacity:1;stroke-dasharray:none" />
          <path
             sodipodi:nodetypes="cc"
             inkscape:connector-curvature="0"
             id="path3842-9-82"
             d="m 615.58784,741.15793 6.498,-23.84575"
             style="fill:none;stroke:#000000;stroke-width:8.19999981;stroke-linecap:butt;stroke-linejoin:miter;stroke-miterlimit:4;stroke-opacity:1;stroke-dasharray:none" />
          <path
             sodipodi:nodetypes="cc"
             inkscape:connector-curvature="0"
             id="path3842-9-45"
             d="m 639.25189,747.52781 6.498,-23.84575"
             style="fill:none;stroke:#000000;stroke-width:8.19999981;stroke-linecap:butt;stroke-linejoin:miter;stroke-miterlimit:4;stroke-opacity:1;stroke-dasharray:none" />
          <path
             sodipodi:nodetypes="cc"
             inkscape:connector-curvature="0"
             id="path3842-9-5"
             d="m 663.2415,753.98532 6.498,-23.84575"
             style="fill:none;stroke:#000000;stroke-width:8.19999981;stroke-linecap:butt;stroke-linejoin:miter;stroke-miterlimit:4;stroke-opacity:1;stroke-dasharray:none" />
        </g>
        <g
           style="font-size:131.45198059px;font-style:normal;font-weight:normal;line-height:125%;letter-spacing:0px;word-spacing:0px;fill:#000000;fill-opacity:1;stroke:none;font-family:Times New Roman;-inkscape-font-specification:Times New Roman"
           id="text3949-7-1-2">
          <path
             d="m 689.56628,805.87097 0,-94.096 12.452,0 0,38.6397 48.90938,0 0,-38.6397 12.45199,0 0,94.096 -12.45199,0 0,-44.3522 -48.90938,0 0,44.3522 z"
             style="fill:#000000;font-family:arial;-inkscape-font-specification:arial"
             id="path4071"
             inkscape:connector-curvature="0" />
        </g>
      </g>
      <g
         id="g4166">
        <path
           style="fill:none;stroke:#000000;stroke-width:8.89999962;stroke-miterlimit:4;stroke-dasharray:none"
           d="M 177.03267,792.34424 335.36272,700.84881"
           id="path3072"
           inkscape:connector-curvature="0"
           sodipodi:nodetypes="cc" />
        <g
           id="g4160">
          <g
             id="text3949-7"
             style="font-size:131.45198059px;font-style:normal;font-weight:normal;line-height:125%;letter-spacing:0px;word-spacing:0px;fill:#000000;fill-opacity:1;stroke:none;font-family:Times New Roman;-inkscape-font-specification:Times New Roman">
            <path
               id="path4080"
               style="fill:#000000;font-family:arial;-inkscape-font-specification:arial"
               d="m 35.897966,889.00861 0,-94.096 41.720599,0 c 8.38685,9e-5 14.762607,0.8452 19.127291,2.53533 4.364544,1.69031 7.851954,4.67493 10.462244,8.95388 2.61013,4.27911 3.91523,9.00744 3.91532,14.185 -9e-5,6.67536 -2.161,12.30229 -6.48274,16.8808 -4.3219,4.57861 -10.997194,7.48836 -20.025891,8.72923 3.294795,1.58329 5.798029,3.14513 7.509708,4.68555 3.63711,3.33768 7.08173,7.50974 10.333873,12.51618 l 16.36731,25.61003 -15.66127,0 -12.451995,-19.57659 c -3.637242,-5.64831 -6.632564,-9.97013 -8.985975,-12.96548 -2.353524,-2.99529 -4.460947,-5.09202 -6.322276,-6.29018 -1.861428,-1.19809 -3.7549,-2.03251 -5.68042,-2.50324 -1.412124,-0.29949 -3.722801,-0.44926 -6.932038,-0.4493 l -14.441746,0 0,41.78479 z m 12.451994,-52.56796 26.765369,0 c 5.691063,5e-5 10.141256,-0.58831 13.350592,-1.7651 3.209211,-1.17668 5.648259,-3.05945 7.317151,-5.64833 1.668753,-2.58875 2.503164,-5.40222 2.503236,-8.4404 -7.2e-5,-4.45012 -1.615407,-8.10869 -4.846008,-10.97572 -3.230736,-2.86688 -8.333481,-4.30035 -15.30825,-4.30043 l -29.78209,0 z"
               inkscape:connector-curvature="0" />
          </g>
          <g
             id="text3949-7-6"
             style="font-size:98.87133789px;font-style:normal;font-weight:normal;line-height:125%;letter-spacing:0px;word-spacing:0px;fill:#000000;fill-opacity:1;stroke:none;font-family:Times New Roman;-inkscape-font-specification:Times New Roman">
            <path
               id="path4083"
               style="fill:#000000;font-family:arial;-inkscape-font-specification:arial"
               d="m 157.1532,841.33026 -8.68986,0 0,-55.37374 c -2.09203,1.9955 -4.83578,3.99095 -8.23124,5.98635 -3.3955,1.9955 -6.44499,3.49208 -9.14849,4.48976 l 0,-8.4002 c 4.85987,-2.28506 9.10824,-5.05294 12.74513,-8.30365 3.63684,-3.25058 6.21162,-6.40468 7.72433,-9.46229 l 5.60013,0 z"
               inkscape:connector-curvature="0" />
          </g>
        </g>
      </g>
      <g
         id="g4153">
        <g
           style="font-size:131.45198059px;font-style:normal;font-weight:normal;line-height:125%;letter-spacing:0px;word-spacing:0px;fill:#000000;fill-opacity:1;stroke:none;font-family:Times New Roman;-inkscape-font-specification:Times New Roman"
           id="text3949">
          <path
             d="m 354.92096,715.8465 0,-94.096 12.77293,0 49.42286,73.87755 0,-73.87755 11.93851,0 0,94.096 -12.77292,0 -49.42287,-73.94174 0,73.94174 z"
             style="fill:#000000;font-family:arial;-inkscape-font-specification:arial"
             id="path4077"
             inkscape:connector-curvature="0" />
        </g>
        <g
           id="g4149">
          <path
             transform="matrix(0.27151231,0,0,0.27151231,347.41101,445.44445)"
             d="m 287.20171,533.81921 c 0,21.81375 -17.68354,39.49729 -39.49729,39.49729 -21.81375,0 -39.49729,-17.68354 -39.49729,-39.49729 0,-21.81375 17.68354,-39.49728 39.49729,-39.49728 21.81375,0 39.49729,17.68353 39.49729,39.49728 z"
             sodipodi:ry="39.497288"
             sodipodi:rx="39.497288"
             sodipodi:cy="533.81921"
             sodipodi:cx="247.70442"
             id="path4091"
             style="fill:#000000;fill-opacity:1;fill-rule:nonzero;stroke:none"
             sodipodi:type="arc" />
          <path
             transform="matrix(0.27151231,0,0,0.27151231,299.29138,445.44461)"
             d="m 287.20171,533.81921 c 0,21.81375 -17.68354,39.49729 -39.49729,39.49729 -21.81375,0 -39.49729,-17.68354 -39.49729,-39.49729 0,-21.81375 17.68354,-39.49728 39.49729,-39.49728 21.81375,0 39.49729,17.68353 39.49729,39.49728 z"
             sodipodi:ry="39.497288"
             sodipodi:rx="39.497288"
             sodipodi:cy="533.81921"
             sodipodi:cx="247.70442"
             id="path4091-4"
             style="fill:#000000;fill-opacity:1;fill-rule:nonzero;stroke:none"
             sodipodi:type="arc" />
        </g>
      </g>
    </g>
  </g>
</svg>
